<svg xmlns="http://www.w3.org/2000/svg" viewBox="0 0 408.3619 357.58063" height="100.92mm" width="115.25mm"><path d="M50.48 357.13c-.15-.4-.35-9.8-.25-11.84 0-.25.56-.68 1.2-.97 1.36-.58 18.53-10.98 19.2-11.62.36-.33.24-.45-.64-.64-2.8-.62-4.47-2.8-5.1-6.67-.53-3.4-.56-3.46-1.2-2.67-.3.37-2.5 2.67-4.94 5.1-3.26 3.3-4.56 4.42-5 4.3-.34-.1-1.16.1-1.83.46-.66.33-1.9.7-2.7.83-3.06.43-6.3-2.14-8.7-6.87-.64-1.3-1.36-2.33-1.6-2.33s-2.12.92-4.18 2.05c-3.7 2.03-3.78 2.05-6.84 2.2-4.45.23-7.12-.88-8.56-3.56-.9-1.7-.87-2.9.17-5.53 1.08-2.74.84-3.16-1.38-2.37-.85.3-2.65.7-4 .88-1.34.2-3.56.64-4.9 1-1.37.36-3.53.66-4.82.66-2.13 0-2.43-.1-3.38-.97-1-.94-1.04-1.1-1.02-3.32.03-2.23.1-2.48 1.74-5.25 7.35-12.53 12-28.05 18.18-60.95 6.25-33.16 8.3-42.54 11.35-51.8 4.6-14.02 9.96-21.8 16.66-24.22 1.67-.6 1.97-.9 1.36-1.28-.5-.32-.4-2.06.16-2.63.27-.3.9-.77 1.4-1.08.87-.54.93-.73 1.35-4.43.57-5.05.58-20.7.02-25.2-.93-7.45-2.27-14.1-5.8-28.76C44.1 99.93 42.85 93.6 42 87.14c-2.66-20.17-1.3-41.66 4.33-68.3.63-2.94 1.25-5.47 1.4-5.63.13-.14.78.8 1.43 2.08 1.25 2.48 3.07 4.7 3.85 4.7.8 0 4.52-5.6 4.84-7.3 1.85-4.2 8.44 4.92 10.85 6.1l1.34.64 3.55-1.38c1.94-.76 3.74-1.38 4-1.38.25 0 .82-.6 1.27-1.34.45-.74.94-1.27 1.1-1.16.16.1.97 1.15 1.8 2.34.84 1.2 1.63 2.16 1.77 2.16.12 0 .27-.7.32-1.58l.1-1.58 3.5-.05c2.78-.05 3.56-.16 3.86-.6.48-.67.88-.66 1.5.06.45.53 1.06.58 5.18.5l4.68-.1.53-.98c.68-1.25.98-1.24 1.22 0l.18 1 99.3-.07 99.28-.1.24-1.5c.58-3.57.83-3.75 1.98-1.4 1.18 2.43 2.1 3.16 4.1 3.24 2.2.1 3.45-.54 5.17-2.6.8-.94 1.55-1.55 1.75-1.42.2.13.7.96 1.14 1.85.44.9.94 1.72 1.13 1.84.26.17 4.38.28 6.32.17.13 0 .88-.9 1.64-2 .76-1.1 1.6-2 1.83-2 .24 0 .58.43.76.97.3.86.68 1.1 2.83 1.86 2.22.77 2.74.84 4.6.58 1.68-.24 2.26-.2 2.78.18.54.4.82.4 1.5.08 9.5-6.2 6.2-8.6 11.52-1.1 2.6 3.66 2.62 3.67 3.97 2.43.6-.56 1.67-2.14 2.34-3.5 3.55-5.35 3.93 7.4 4.08 8.16 5.5 28 6.08 50.34 1.9 72.3-.44 2.3-2.15 9.94-3.8 17-4.8 20.44-5.42 24.8-5.42 37.15v8.66l1.4 4.68c.77 2.57 1.6 4.96 1.83 5.32.24.36.44 1.1.44 1.6 0 1.5.46 2.06 2.7 3.2 6.23 3.22 11.4 11.62 15.62 25.4 2.76 8.97 4.88 18.77 9.92 45.8 3.68 19.7 6.12 30.82 8.8 40.14 2.76 9.52 6.4 18.54 9.8 24.24 2.4 4.04 2.9 6.57 1.68 8.65-1.13 1.94-4.04 2.18-9.1.77-1.24-.34-3.46-.85-4.96-1.12-1.5-.27-2.98-.6-3.32-.75-.54-.22-.57-.15-.3.73.14.53.27 2.02.26 3.3 0 1.87-.2 2.7-.9 4.17-1.1 2.3-2.54 3.9-4.2 4.7-1.8.87-3 .78-5.1-.37-1-.55-2.02-1-2.27-1s-2.25-.98-4.44-2.17c-2.2-1.2-4.13-2.17-4.3-2.17-.16 0-.83 1.06-1.48 2.35-2.26 4.5-5.16 6.98-8.12 6.98-1.2 0-1.34.06-.93.46.25.25 4.27 3.05 8.92 6.2 4.64 3.16 8.56 5.85 8.7 5.97.12.12 1.03 3.04 2 6.5 1.24 4.35 1.68 6.37 1.45 6.6-.23.25-33.6.44-106.54.6-58.4.15-132.35.37-164.3.5-52.88.23-58.14.2-58.32-.27zM84.25 171c-.1-.08-2.28.1-4.87.4-2.6.3-6.18.64-7.96.76-1.8.12-3.42.32-3.62.45-.28.2-.24.52.13 1.28 1.4 2.8-.03 5.12-3.43 5.6l-1.4.2-.2 3.2c-.8 12.32-.55 27.6.6 38.7 1.75 16.76 4.58 28.7 12.95 54.66 2.28 7.06 4.86 15.53 5.75 18.83.88 3.3 1.7 6.22 1.82 6.5.12.27.25-28.96.3-64.95.04-36 0-65.52-.07-65.6zM281 251.43l21.24-29.4 7.54-10.4-.38-3.76c-.2-2.07-.44-3.83-.5-3.9-.1-.1-.34.06-.6.33-.43.47-36.93 58.4-40.44 64.2-1.87 3.07-2.4 4.3-1.2 2.74.36-.45 6.8-9.38 14.35-19.82zm-153.57-16.94c13.08-18.25 40.64-56.4 60.28-83.42 5.66-7.8 5.23-6.2 4.3-15.5-.54-5.46-.74-6.38-1.28-5.75-.33.4-77.85 123.82-78.88 125.6-2 3.43 1.2-.86 15.58-20.92zm140.7-42.9c12.97-17.97 24.12-33.47 24.8-34.45l1.23-1.77-1.45-1.85c-.78-1-1.58-2.1-1.76-2.44-.22-.4-.43-.5-.64-.28-.17.2-8.6 13.53-18.74 29.66-27.16 43.23-27.52 43.82-27.13 43.82.1 0 10.76-14.7 23.7-32.68zm-114.9-43.63c4.17-5.77 13.56-18.77 20.9-28.88 7.32-10.12 13.55-18.76 13.83-19.22.47-.74.48-1.2.1-4.53-.23-2.04-.56-3.7-.73-3.7-.35 0-41.32 65-42.34 67.16l-.64 1.33.66-.82c.37-.46 4.06-5.55 8.22-11.33zm109.06-62.8c10.05-13.94 19.6-27.16 21.23-29.4l2.95-4.04-.4-3.85c-.24-2.34-.53-3.86-.74-3.85-.34 0-40.02 63.07-41.8 66.4-1.33 2.55-1.32 2.53 18.75-25.26z" fill="#fff"/><path d="M50.82 351.53c1-14.85 24.24-16.25 34.56-24.87 9.75-1.8 20.5-.25 30.64-.77h209.82c8.15 4.07 11.44 4.35.4-.18-10.95-2.53 2.33-19.2-13.02-12.94-32.72.02-65.46.5-98.17-.3-.38-94.9 0-189.77.04-284.66 35.35-.95 43.94-1.16 85.1-2.23 1.3-8 4-16.13 1.82-1.97-5.56 35.33-15.06 70.34-15.83 106.22 3.3 30.5 24.15 40.62 57.75 38.8 15.47-3.23-4.47-25.26-1.23-36.92-4.84-40.83.47-82.16 5.28-122.66 7.8 5.15 6.96 12.63 2.4 20.7-8.52 39-5.07 79.57-.56 118.87.84 9.54.06 18.2 9.35 18.82-15.25 13.85 4.13 39.05 3.42 57.98 6.25 32.8 12.1 65.77 15.6 99-15.03-.04-9.03-18.22-11.02-28.54-3.3-40.73-11.45-80.86-16.6-121.37-13.37 5.9.05 30.6-5.7 43.52-1.85 36.04-23.02 68-23.37 104.15 8.4 9.62 21.15 6.02 23.88-2.24 5.08 5.3 18.86 15.93 5.43 5.7-7.98-13.83-7.04 3.23-13.66 4 12.63-12.9 22.64 5.8 34.67 11.35 9.9 6.05 9.13 20.2-4.9 15.08-105.35.56-210.7.97-316.03 1.5l-.08-6.05zm245.45-41.88c-16-.03-42.87-.1-52.2.07 18.38.02 36.77.03 55.16 0l-2.96-.07zM281 251.42c9.58-13.28 19.17-26.55 28.78-39.8-.45-17.73-11.8 12.54-16.97 17.1-6.93 11.7-23.86 36.52-24.8 40.7l13-18zm54.7 8.9c8.68-26.9 11.5-55.62 8.83-83.7-13.03-3.67 11.05-11.4-5.53-7.03-8.84-2.2-2.76 11.02-4.56 16.1.02 25.74-.3 51.48.16 77.2l1.1-2.57zM262.3 85.15c7.53-11.6 17.73-22.53 24.08-34.44-.97-14.6-10.88 11.74-15.76 16.3-7 11.76-24.84 38.2-25.73 42.15 5.84-7.97 11.6-16 17.4-24zM71.14 332.22c18.2.02 17.25-15.35 13.18-28.03 2.16 4.08 7.5 28.64-10.57 27.8l-2.6.22zm-17.54-1.07c-5.08-49.1-1.5-98.72 4.85-147.54-2.54 46.2-4.82 93.04 4.84 138.62-1.77 2.93-6.36 8.68-9.68 8.93zm2.87-1.26c4.04-4.73-4.8 4.76 0 0zm-26.22-3.42c5.9-50.38 15.95-100.26 26.2-149.8-7.93 6.76-7.45 29.32-12.3 41.7-7.5 32.2-14.6 64.5-22.56 96.6-11.9 7.73-13.68-2.53-5.8-12.76 16.14-39.83 21.25-83 35.02-123.52 3.07-4.43-6.6-14.02 5.66-9.2 13.52-3.3 15.23 15.82 1.3 7.78-6.54 48.5-16.83 96.75-18.03 145.85-1.52.54-9.77 6.93-9.5 3.35zm64.47-14.08c-2.27-29.8-.4-60.54-.97-90.7-2.37-15.83 4.6-43.05-3.76-51.85-14.6 2.1 15.95-2.5 19-7.42 18-12.9 13.07-38.1 10.97-57-4.56-30-10.68-59.75-15.4-89.7 4.1 15.1 24.23 10.22 37.83 12.98 20.4.06 40.8.1 61.2.13-.06 93.65.38 187.3-.1 280.96-11.03 6.9-31.66 1.17-46.33 3.1-20.8-.22-41.7.5-62.44-.5zm55.1-2.75l-52.18-.1c-.3-47.15.7-94.43-.64-141.5.83 14.86.32 32.58.48 48.55v93.05c34.84.37 69.7.08 104.53.08l-52.18-.08zm-22.4-75.17c21.4-30.36 44.04-59.93 64.9-90.6 1.04-9.34-1.23-20.5-6.82-5.8-24.68 39.44-49.78 78.67-74.1 118.32 5.6-7.13 10.7-14.6 16.02-21.92zm25.82-86.53c11.53-16.55 24.3-32.48 35.1-49.4-.84-15.27-11.16 12.12-16.15 16.7-9.25 14.96-19.1 29.6-27.84 44.87 3.08-3.97 5.9-8.12 8.88-12.17zm-93.1 19.33c8.64-44.63 28.03-90.64 14.25-136.3-4.52-6.8-5.02-13.7 2.66-13.97 6.8 8.88 6.8 26.7 7.5 39.34-.3 38.38-11.9 75.64-24.35 111.54l-.05-.6zm-3.2-1.1c5.07-42.95 9.7-87.06 1.75-129.94-1.4-7-8.54-16.8-1.78-20.4 7.3-8.52 4.38 20.65 6.86 27.28 4.05 41.1 7.57 84.52-6.72 123.95l-.1-.88zm290.8.5c-15-47.05-32.94-97.6-20.17-147.3.36-11.5 17.5-1.72 7.37 6.64-14.7 44.64 3.56 90.62 12.84 134.38-.26.33 2.62 8.77-.02 6.3zm-14-4.4c-9.46-5.9 8.08 3.47 0 0zm-251.9-2.56c25.33-20.47 23.5-56.6 18.65-85.6-2.98-17.9-7.27-35.57-11.1-53.32.66-10.82 11.28 1.85 12.8-4.5-3.62 7.58-13.06-6.53-7.54 5.63 8.82 34.52 19.57 70.75 12.46 106.56-2.26 13.27-16.5 28.76-25.3 31.22zm246.08-.65c-20.07-10.2-30.75-32.66-29.2-54.65.13-31.38 7.84-62.3 17.1-92.1 7.08 14.7-5.4 32.02-5.7 47.8-5.05 28.34-10.57 61.25 7.02 86.43.1 2.96 19.42 16.55 10.78 12.52z" fill="#dcdcdc"/></svg>
