<svg height="512pt" viewBox="-43 0 512 512" width="512pt" xmlns="http://www.w3.org/2000/svg"><path d="M26 512h324c14 0 25-11 25-26V85h35c9 0 17-7 17-17V43c0-24-19-43-43-43H26C11 0 0 11 0 26v460c0 15 11 26 26 26zM384 17c14 0 26 12 26 26v25H68V43c0-10-3-19-8-26zM17 26c0-5 4-9 9-9 14 0 25 12 25 26v25c0 10 8 17 17 17h290v401c0 5-3 9-8 9H26c-5 0-9-4-9-9zm0 0"/><path d="M68 213h51c10 0 18-7 18-17v-8a9 9 0 00-18 0v8H68v-51h26a9 9 0 000-17H68c-9 0-17 8-17 17v51c0 10 8 17 17 17zm0 0M68 333h51c10 0 18-8 18-17v-51c0-10-8-18-18-18H68c-9 0-17 8-17 18v51c0 9 8 17 17 17zm0-68h51v51H68zm0 0M68 452h51c10 0 18-7 18-17v-51c0-9-8-17-18-17H68c-9 0-17 8-17 17v51c0 10 8 17 17 17zm0-68h51v51H68zm0 0M171 162h42a9 9 0 100-17h-42a9 9 0 100 17zm0 0M247 162h86a9 9 0 000-17h-86a9 9 0 000 17zm0 0M171 196h85a9 9 0 000-17h-85a9 9 0 100 17zm0 0M333 179h-43a9 9 0 000 17h43a9 9 0 000-17zm0 0M171 282h42a9 9 0 100-17h-42a9 9 0 100 17zm0 0M333 265h-86a9 9 0 000 17h86a9 9 0 000-17zm0 0M171 316h85a9 9 0 000-17h-85a9 9 0 100 17zm0 0M333 299h-43a9 9 0 000 17h43a9 9 0 000-17zm0 0M171 401h42a9 9 0 100-17h-42a9 9 0 100 17zm0 0M333 384h-86a9 9 0 000 17h86a9 9 0 000-17zm0 0M171 435h85a9 9 0 000-17h-85a9 9 0 100 17zm0 0M333 418h-43a9 9 0 000 17h43a9 9 0 000-17zm0 0"/><path d="M91 156a9 9 0 00-12 12l17 17 6 3h1c3 0 5-2 6-4l43-60a9 9 0 10-14-9l-37 51zm0 0"/></svg>